# xmcd CD database file
#
# Track frame offsets:
#	150
#	8797
#	23630
#	36382
#	45230
#	55610
#	74530
#	86040
#	101907
#	111092
#	127198
#	138885
#
# Disc length: 2175 seconds
#
# Revision: 0
# Processed by: cddbd v1.4PL0 Copyright (c) Steve Scherf et al.
# Submitted via: CDex 1.50
#
DISCID=9f087d0c
DTITLE=Clarelynn Rose - The Redwood Sidthe
DYEAR=2001
DGENRE=New Age
TTITLE0=The Redwood Sidthe
TTITLE1=Across the Pond
TTITLE2=Miles
TTITLE3=Bai Ma (white Horse)
TTITLE4=Rain Forest Rain
TTITLE5=Green Haven
TTITLE6=Lake Oswego Moon
TTITLE7=Diamond Creek
TTITLE8=Redwood Dawn
TTITLE9=Catwalk
TTITLE10=Amitabha (Buddha)
TTITLE11=Offering
EXTD=YEAR: 2001
EXTT0=
EXTT1=
EXTT2=
EXTT3=
EXTT4=
EXTT5=
EXTT6=
EXTT7=
EXTT8=
EXTT9=
EXTT10=
EXTT11=
PLAYORDER=
